<?xml version="1.0" standalone="no"?>
<!DOCTYPE svg PUBLIC "-//W3C//DTD SVG 20010904//EN"
 "http://www.w3.org/TR/2001/REC-SVG-20010904/DTD/svg10.dtd">
<svg version="1.0" xmlns="http://www.w3.org/2000/svg"
 width="1213.000000pt" height="1280.000000pt" viewBox="0 0 1213.000000 1280.000000"
 preserveAspectRatio="xMidYMid meet">
<g transform="translate(0.000000,1280.000000) scale(0.100000,-0.100000)"
fill="#212529" stroke="none">
<path d="M823 12746 c-66 -60 -162 -174 -186 -221 -21 -43 -34 -117 -52 -295
-8 -85 -20 -177 -26 -205 -17 -84 -59 -109 -98 -59 -17 22 -26 25 -48 19 -65
-16 -101 -16 -131 -1 -42 22 -138 21 -181 -2 -45 -22 -68 -56 -86 -122 -20
-74 -19 -110 6 -194 40 -137 108 -249 279 -466 103 -131 218 -300 277 -410
l41 -75 5 -555 c3 -349 9 -572 16 -600 6 -25 15 -162 21 -305 5 -143 14 -287
20 -319 14 -74 52 -181 95 -266 62 -125 98 -268 98 -390 -1 -62 4 -83 28 -130
16 -30 33 -78 38 -106 6 -28 19 -66 30 -85 11 -19 27 -53 35 -76 8 -23 30 -64
49 -91 19 -28 38 -63 42 -79 9 -37 23 -53 46 -53 22 0 39 -36 39 -80 0 -21 10
-39 34 -61 59 -53 111 -176 131 -310 3 -20 14 -47 25 -60 12 -12 23 -34 27
-48 41 -175 75 -265 114 -307 11 -12 22 -39 26 -60 3 -21 13 -47 22 -57 8 -10
21 -45 27 -77 16 -78 73 -198 133 -279 26 -36 53 -76 59 -87 7 -13 25 -24 47
-28 36 -7 55 -29 55 -66 0 -11 6 -23 14 -26 8 -3 23 -27 35 -53 11 -26 27 -53
35 -60 8 -7 18 -27 21 -44 4 -18 17 -40 28 -49 20 -15 21 -19 8 -50 -26 -65
-25 -73 11 -83 27 -8 35 -18 45 -50 7 -22 55 -168 107 -325 52 -157 108 -348
125 -425 18 -77 45 -189 61 -250 75 -286 140 -734 187 -1285 25 -294 25 -874
0 -1100 -24 -215 -60 -412 -84 -453 -37 -63 -129 -97 -330 -122 -230 -29 -375
-84 -452 -172 -70 -78 -72 -182 -7 -268 54 -70 58 -71 239 -49 38 5 68 -1 157
-30 136 -45 217 -48 336 -12 43 13 118 29 165 35 98 13 211 48 275 86 49 29
80 66 118 142 17 35 34 54 49 58 12 3 177 6 367 7 375 3 385 5 441 62 19 19
30 44 37 89 19 105 21 142 37 467 16 342 26 456 55 685 24 180 46 455 60 740
18 380 31 517 71 785 58 387 59 390 153 478 66 63 116 87 211 102 77 12 139 8
323 -21 68 -11 189 -24 270 -29 81 -5 206 -16 277 -25 141 -18 189 -16 350 16
64 13 196 25 365 34 512 28 671 52 1145 175 345 90 447 105 505 75 45 -23 74
-85 130 -273 129 -440 305 -833 570 -1277 220 -367 361 -614 413 -725 27 -58
118 -247 202 -420 223 -459 270 -590 263 -729 -2 -60 -9 -88 -33 -135 -60
-118 -152 -183 -331 -233 -75 -20 -107 -35 -136 -61 -43 -39 -108 -161 -108
-202 0 -42 35 -145 59 -176 11 -15 21 -35 21 -46 0 -46 25 -64 118 -88 80 -21
51 -59 -106 -140 -143 -74 -227 -167 -259 -286 -21 -80 -11 -105 71 -188 99
-100 212 -157 386 -192 91 -19 144 -25 195 -21 215 14 551 120 600 189 31 44
55 133 230 853 54 222 87 315 200 560 45 99 94 212 109 252 48 125 147 246
177 216 15 -15 28 -107 54 -395 15 -155 32 -318 40 -361 23 -132 115 -296 187
-333 43 -22 231 -31 324 -15 137 24 224 102 308 276 57 117 87 211 136 425 57
246 251 971 350 1305 85 288 114 464 145 885 26 358 45 557 70 730 47 326 64
626 46 835 -23 258 -42 429 -57 505 -28 137 -216 611 -354 895 -183 373 -394
592 -905 935 -462 310 -695 429 -1039 529 -313 92 -486 118 -876 131 -151 6
-331 16 -400 24 -69 8 -219 20 -335 25 -115 6 -306 16 -423 21 -241 12 -394
28 -632 64 -91 14 -223 32 -295 41 -71 8 -251 40 -400 70 -148 29 -365 72
-481 94 -116 23 -258 54 -315 70 -57 17 -141 35 -187 41 -182 24 -822 230
-1013 325 -131 66 -353 264 -469 420 -37 50 -142 165 -233 258 -294 297 -316
347 -206 473 102 115 92 146 -81 264 -194 133 -543 468 -677 650 -160 218
-383 435 -508 495 -66 32 -309 115 -440 151 -54 14 -70 26 -159 112 -144 141
-330 346 -472 518 -132 162 -234 264 -263 264 -10 0 -45 -24 -78 -54z m9720
-8039 c8 -21 -10 -164 -43 -343 -40 -214 -57 -408 -103 -1179 -7 -120 -16
-200 -22 -199 -20 1 -52 64 -64 126 -7 35 -25 119 -42 188 -39 161 -108 630
-116 787 -8 161 1 190 86 291 37 43 111 138 165 210 94 127 126 153 139 119z"/>
</g>
</svg>
